<?xml version="1.0" standalone="no"?>
<!DOCTYPE svg PUBLIC "-//W3C//DTD SVG 20010904//EN"
 "http://www.w3.org/TR/2001/REC-SVG-20010904/DTD/svg10.dtd">
<svg version="1.0" xmlns="http://www.w3.org/2000/svg"
 width="754.000000pt" height="754.000000pt" viewBox="0 0 754.000000 754.000000"
 preserveAspectRatio="xMidYMid meet">
<metadata>
Created by potrace 1.11, written by Peter Selinger 2001-2013
</metadata>
<g transform="translate(0.000000,754.000000) scale(0.100000,-0.100000)"
fill="#000000" stroke="none">
<path d="M5555 7330 c-3 -4 -4 -77 -4 -161 0 -85 0 -171 0 -191 l-1 -38 -395
0 c-309 0 -395 -3 -396 -12 -1 -17 -1 -371 0 -380 1 -5 90 -8 199 -8 l197 0 0
-397 0 -398 -197 3 c-184 3 -198 2 -199 -15 0 -10 -1 -188 -1 -395 -1 -340 -3
-378 -17 -379 -22 -1 -320 -1 -351 0 l-25 1 0 583 c1 320 -1 587 -3 594 -3 9
-48 12 -170 12 -92 0 -180 0 -197 0 l-30 1 2 195 3 195 -23 1 c-28 1 -736 1
-759 0 -14 -1 -16 -21 -17 -192 0 -105 -2 -193 -4 -196 -3 -2 -92 -5 -198 -6
l-194 -2 0 -592 c0 -586 0 -593 -20 -594 -21 -1 -316 -1 -351 0 l-21 1 -1 573
c0 314 -1 582 -1 594 -1 22 -2 22 -178 22 -98 0 -187 0 -198 0 -20 1 -21 7
-20 196 0 168 -2 195 -15 196 -20 1 -751 1 -767 0 -10 -1 -13 -47 -13 -196 l0
-195 -27 0 c-16 -1 -104 -2 -198 -3 l-170 -2 -2 -785 c-1 -432 -3 -788 -3
-792 0 -4 -89 -9 -197 -10 l-198 -3 0 -588 c0 -324 4 -591 8 -594 5 -3 94 -5
198 -4 l189 1 0 -23 c1 -12 2 -726 3 -1587 l2 -1565 385 -1 c212 0 390 2 397
4 9 3 12 103 12 398 l0 394 -32 1 c-18 0 -106 1 -197 2 l-165 2 -1 988 -2 987
42 1 c50 0 327 0 341 -1 7 0 10 -135 10 -392 l0 -393 198 -3 c179 -2 197 -4
198 -20 0 -9 1 -456 2 -992 l2 -975 395 0 395 0 1 398 2 397 -57 1 c-31 0
-120 0 -197 0 l-141 0 0 990 0 989 46 1 c44 0 268 0 321 -1 l26 0 -1 -395 0
-395 197 0 198 0 0 -42 c1 -24 2 -470 3 -993 l2 -950 385 -1 c212 0 390 2 397
4 8 3 11 105 11 398 l0 394 -26 1 c-15 0 -104 0 -199 0 l-171 -1 0 990 0 990
52 1 c49 0 279 0 321 -1 20 0 20 -6 20 -392 l0 -393 198 -3 c179 -2 197 -4
198 -20 0 -9 1 -456 2 -992 l2 -975 395 0 395 0 1 398 1 397 -36 1 c-20 0
-108 1 -196 2 l-160 2 -3 988 -2 987 37 0 c21 1 110 2 198 3 l160 2 2 185 c1
102 2 190 2 197 1 9 37 12 139 12 75 0 164 0 197 0 l60 1 0 993 0 992 197 -1
198 -2 0 198 0 197 195 1 c143 1 195 -2 196 -11 1 -7 3 -181 4 -387 1 -206 3
-380 4 -385 1 -7 137 -10 396 -10 l395 0 0 198 c0 181 1 197 18 197 9 1 98 2
197 3 l180 2 1 198 1 197 -198 0 -199 0 0 395 0 395 -22 1 c-13 0 -100 1 -195
1 -116 1 -173 5 -176 12 -2 6 -3 95 -2 199 l0 187 -197 0 -198 0 -1 33 c0 17
-1 106 -2 197 l-2 165 -393 1 c-216 1 -395 -2 -397 -6z m791 -980 c0 -102 -1
-189 -3 -195 -2 -6 -54 -9 -136 -8 -72 1 -160 2 -194 3 l-63 0 0 195 0 195
197 -2 198 -3 1 -185z"/>
<path d="M0 2775 l0 -595 198 0 199 0 0 595 0 595 -198 0 -199 0 0 -595z"/>
</g>
</svg>
